<?xml version="1.0" encoding="UTF-8"?>
<!-- Generator: visioncortex VTracer 0.6.4 -->
<svg version="1.1" xmlns="http://www.w3.org/2000/svg" width="4096" height="4096">
<defs><mask id="m"><rect width="4096" height="4096" fill="black"/>
<path d="M0 0 C0.843 -0.003 1.687 -0.007 2.556 -0.01 C4.332 -0.015 6.109 -0.017 7.885 -0.017 C10.558 -0.02 13.23 -0.038 15.902 -0.057 C25.805 -0.089 35.192 0.423 44.961 2.168 C46.372 2.383 47.784 2.597 49.195 2.809 C81.318 8.376 116.137 24.356 135.496 51.617 C152.902 77.412 159.12 107.008 153.984 137.839 C150.59 154.541 142.982 170.456 132.961 184.168 C132.557 184.73 132.153 185.292 131.736 185.871 C118.518 204.069 102.154 218.528 82.961 230.168 C81.901 230.831 80.842 231.493 79.75 232.176 C64.488 241.634 48.363 249.61 32.211 257.418 C31.229 257.896 30.246 258.374 29.234 258.867 C28.324 259.301 27.414 259.736 26.477 260.184 C25.675 260.568 24.874 260.953 24.048 261.349 C21.961 262.168 21.961 262.168 18.961 262.168 C24.908 272.119 31.326 281.667 37.961 291.168 C39.081 292.779 40.201 294.389 41.32 296 C52.208 311.636 63.224 327.155 74.961 342.168 C77.254 345.104 79.545 348.042 81.836 350.98 C82.433 351.746 83.031 352.512 83.646 353.3 C87.501 358.253 91.282 363.254 95.023 368.293 C99.584 374.426 104.322 380.388 109.167 386.298 C112.736 390.651 116.246 395.044 119.711 399.48 C126.597 408.285 133.705 416.888 140.945 425.403 C143.671 428.617 146.343 431.864 148.961 435.168 C153.818 441.289 158.888 447.226 163.961 453.168 C164.467 453.762 164.974 454.356 165.496 454.969 C167.045 456.786 168.596 458.603 170.148 460.418 C170.649 461.003 171.149 461.588 171.664 462.191 C175.243 466.365 178.9 470.459 182.633 474.496 C183.961 476.168 183.961 476.168 183.961 478.168 C184.58 478.477 185.198 478.787 185.836 479.105 C187.211 479.793 188.586 480.48 189.961 481.168 C201.822 463.885 211.283 445.309 218.15 425.506 C218.884 423.389 219.648 421.285 220.418 419.18 C229.496 392.768 233.339 359.037 221.465 332.914 C213.75 318.827 200.619 309.842 185.398 305.293 C170.099 301.94 154.554 303.312 141.086 311.543 C137.851 313.712 134.981 316.002 132.148 318.668 C129.619 320.948 129.324 321.168 125.711 321.168 C122.961 320.168 122.961 320.168 119.961 318.168 C120.037 298.89 129.525 274.924 142.711 260.918 C160.403 244.359 185.723 243.249 208.655 242.783 C211.702 242.721 214.747 242.649 217.793 242.578 C219.407 242.541 221.02 242.503 222.633 242.467 C282.122 241.33 282.122 241.33 340.961 233.168 C341.802 233.002 342.643 232.836 343.51 232.665 C362.609 228.798 379.044 221.035 390.961 205.168 C393.216 201.238 395.086 197.303 396.961 193.168 C402.571 193.168 408.181 193.168 413.961 193.168 C414.481 224.643 404.752 270.368 382.437 294.093 C370.331 306.048 352.213 311.523 336.398 316.668 C310.048 325.265 290.122 337.2 277.09 362.801 C272.875 371.347 269.816 380.078 266.961 389.168 C254.99 425.68 241.842 461.682 219.949 493.598 C219.477 494.288 219.005 494.978 218.518 495.689 C217.632 496.97 216.732 498.242 215.818 499.502 C213.606 502.48 213.606 502.48 213.066 506.02 C214.353 509.108 216.328 511.064 218.617 513.5 C219.102 514.018 219.588 514.536 220.088 515.07 C225.81 521.14 231.678 527.071 237.577 532.969 C239.464 534.859 241.343 536.756 243.223 538.654 C250.163 545.627 257.217 552.087 264.961 558.168 C266.07 559.09 267.175 560.017 268.273 560.953 C274.632 566.342 281.119 571.408 287.961 576.168 C288.802 576.756 288.802 576.756 289.66 577.355 C315.389 595.249 341.995 604.39 373.129 607.858 C374.961 608.168 374.961 608.168 375.961 609.168 C376.034 611.354 376.045 613.543 376.023 615.73 C376.014 616.928 376.005 618.126 375.996 619.359 C375.984 620.286 375.973 621.213 375.961 622.168 C372.971 623.526 369.968 624.85 366.961 626.168 C366.226 626.503 365.491 626.838 364.734 627.184 C356.77 630.632 348.413 632.373 339.961 634.168 C339.038 634.365 338.116 634.563 337.165 634.766 C321.185 638.153 305.145 640.947 288.961 643.168 C288.103 643.288 287.244 643.408 286.36 643.532 C262.7 646.727 230.792 649.992 208.961 638.168 C208.379 637.855 207.797 637.542 207.197 637.22 C187.46 626.47 168.939 612.583 152.414 597.371 C148.824 594.147 145.071 591.134 141.309 588.113 C139.409 586.539 137.66 584.951 135.961 583.168 C131.64 584.624 128.627 586.821 125.086 589.668 C117.982 595.265 110.584 600.307 102.961 605.168 C102.092 605.722 102.092 605.722 101.206 606.288 C73.274 623.929 43.807 635.692 11.961 644.168 C10.215 644.648 10.215 644.648 8.434 645.137 C-21.463 652.485 -56.724 653.302 -87.039 648.168 C-88.395 647.942 -88.395 647.942 -89.779 647.711 C-116.979 642.995 -143.555 634.123 -166.374 618.318 C-168.065 617.15 -169.774 616.01 -171.484 614.871 C-208.783 589.598 -232.87 550.157 -241.727 506.355 C-245.707 484.192 -246.66 461.433 -243.039 439.168 C-242.921 438.414 -242.803 437.66 -242.681 436.883 C-234.486 386.328 -206.121 344.23 -165.049 314.309 C-144.588 299.804 -121.802 288.556 -99.039 278.168 C-99.039 273.976 -101.027 270.996 -102.949 267.379 C-103.783 265.78 -104.617 264.181 -105.451 262.582 C-106.763 260.085 -108.077 257.589 -109.393 255.094 C-116.27 242.026 -122.196 228.846 -127.351 215.012 C-127.829 213.731 -128.311 212.451 -128.797 211.172 C-134.081 197.231 -136.704 182.856 -139.039 168.168 C-139.154 167.458 -139.269 166.749 -139.387 166.018 C-141.852 148.964 -140.485 130.977 -137.039 114.168 C-136.895 113.46 -136.75 112.752 -136.601 112.022 C-129.543 78.708 -110.895 46.088 -82.218 26.799 C-79.205 24.842 -76.137 22.988 -73.039 21.168 C-72.066 20.595 -72.066 20.595 -71.074 20.011 C-49.606 7.572 -24.911 0.035 0 0 Z " fill="white" transform="translate(1185.0390625,2081.83203125)"/>
<path d="M0 0 C2.992 0.011 5.984 0 8.976 -0.013 C24.173 -0.024 39.104 0.889 54.003 4.073 C55.239 4.333 55.239 4.333 56.5 4.598 C58.206 4.962 59.911 5.332 61.614 5.708 C63.265 6.071 64.918 6.426 66.573 6.771 C117.617 17.5 164.264 50.125 192.753 93.573 C204.611 112.138 213.404 131.951 219.128 153.261 C219.325 153.991 219.522 154.722 219.725 155.475 C223.384 169.274 225.626 183.072 227.128 197.261 C227.224 198.115 227.32 198.969 227.418 199.849 C228.232 207.728 228.372 215.594 228.378 223.511 C228.379 224.223 228.38 224.934 228.38 225.668 C228.337 255.038 225.013 284.473 215.128 312.261 C214.852 313.055 214.575 313.85 214.29 314.668 C197.864 361.386 166.886 400.027 122.888 423.326 C121.35 424.143 119.826 424.985 118.304 425.831 C104.009 433.469 87.778 439.065 72.128 443.261 C70.939 443.584 69.749 443.908 68.523 444.241 C64.088 445.396 59.617 446.338 55.128 447.261 C53.845 447.54 53.845 447.54 52.536 447.825 C18.223 455.041 -19.721 453.693 -53.872 446.261 C-54.759 446.074 -55.646 445.888 -56.561 445.696 C-64.913 443.908 -72.932 441.406 -80.872 438.261 C-82.009 437.83 -83.145 437.4 -84.317 436.956 C-107.068 428.245 -128.606 415.987 -146.547 399.397 C-148.57 397.538 -150.638 395.771 -152.747 394.011 C-189.573 361.621 -209.006 310.934 -214.872 263.261 C-214.954 262.625 -215.036 261.989 -215.121 261.333 C-216.712 248.842 -217.215 236.488 -217.187 223.9 C-217.184 220.895 -217.208 217.891 -217.233 214.886 C-217.275 201.761 -216.081 189.189 -213.872 176.261 C-213.635 174.81 -213.4 173.358 -213.165 171.907 C-206.404 131.221 -187.942 93.406 -159.872 63.261 C-159.172 62.504 -159.172 62.504 -158.459 61.731 C-127.013 28.011 -80.939 8.515 -35.872 2.261 C-34.232 2.005 -34.232 2.005 -32.56 1.744 C-21.692 0.178 -10.97 -0.047 0 0 Z " fill="white" transform="translate(2313.87158203125,1564.7392578125)"/>
<path d="M0 0 C15.84 0 31.68 0 48 0 C50.289 6.105 52.579 12.21 54.938 18.5 C56.56 22.826 56.56 22.826 58.182 27.152 C60.626 33.667 63.069 40.182 65.508 46.699 C69.709 57.923 73.943 69.135 78.189 80.343 C78.498 81.158 78.807 81.973 79.125 82.812 C79.431 83.621 79.738 84.429 80.053 85.262 C83.875 95.352 87.678 105.446 91.375 115.582 C92.756 119.362 94.178 123.125 95.598 126.891 C99.533 137.353 103.332 147.866 107.144 158.374 C109.356 164.469 111.571 170.563 113.785 176.656 C114.228 177.874 114.67 179.092 115.126 180.346 C118.886 190.691 122.655 201.032 126.436 211.369 C127.05 213.05 127.665 214.73 128.279 216.411 C131.401 224.955 134.546 233.49 137.748 242.004 C139.583 246.884 141.405 251.769 143.219 256.656 C143.488 257.383 143.758 258.11 144.036 258.858 C145.132 261.811 146.227 264.765 147.323 267.718 C151.846 279.913 156.404 292.094 160.98 304.269 C177.643 348.609 177.643 348.609 184.475 367.364 C186.571 373.116 188.693 378.857 190.852 384.586 C194.02 393.006 197.085 401.463 200.146 409.922 C214.531 449.649 229.219 489.27 244.165 528.79 C244.996 530.99 245.826 533.192 246.655 535.394 C259.53 574.019 259.53 574.019 288.871 600.125 C295.991 603.052 302.243 604.138 310 605 C310 612.26 310 619.52 310 627 C234.76 627 159.52 627 82 627 C82 620.07 82 613.14 82 606 C85.114 605.753 88.229 605.505 91.438 605.25 C107.275 603.808 124.994 601.717 136.562 589.688 C141.577 583.453 143.715 576.873 143.398 568.871 C140.033 544.619 126.334 519.811 117.277 497.233 C110.969 481.501 104.724 465.745 98.581 449.947 C97.739 447.785 96.897 445.623 96.053 443.462 C94.881 440.459 93.715 437.455 92.551 434.449 C92.03 433.118 92.03 433.118 91.499 431.761 C91.183 430.939 90.866 430.118 90.54 429.272 C90.265 428.564 89.99 427.855 89.707 427.125 C89 425 89 425 88 420 C-15.95 420.495 -15.95 420.495 -122 421 C-130.992 442.986 -130.992 442.986 -139.562 465.125 C-140.133 466.642 -140.704 468.158 -141.275 469.675 C-143.193 474.779 -145.098 479.889 -147 485 C-147.372 485.999 -147.743 486.997 -148.126 488.026 C-150.548 494.538 -152.961 501.053 -155.366 507.571 C-156.153 509.703 -156.941 511.835 -157.73 513.966 C-171.442 546.862 -171.442 546.862 -168 581 C-166.34 584.24 -166.34 584.24 -164 587 C-163.564 587.552 -163.129 588.103 -162.68 588.672 C-150.046 603.02 -129.704 604.356 -112 606 C-112 612.93 -112 619.86 -112 627 C-173.38 627 -234.76 627 -298 627 C-298 605 -298 605 -297 604 C-294.754 603.601 -292.503 603.232 -290.25 602.875 C-266.802 598.766 -248.076 589.785 -233 571 C-231.092 568.271 -229.398 565.455 -227.75 562.562 C-227.284 561.747 -226.818 560.932 -226.337 560.093 C-215.91 541.396 -208.475 521.03 -200.498 501.198 C-198.569 496.404 -196.625 491.616 -194.672 486.832 C-189.149 473.3 -183.693 459.748 -178.372 446.135 C-174.319 435.778 -170.197 425.45 -166.062 415.125 C-165.544 413.83 -165.544 413.83 -165.015 412.509 C-163.305 408.238 -161.594 403.968 -159.882 399.698 C-157.293 393.237 -154.709 386.775 -152.125 380.312 C-151.169 377.923 -150.214 375.534 -149.258 373.145 C-148.745 371.863 -148.232 370.581 -147.72 369.299 C-143.929 359.822 -143.929 359.822 -142.82 357.049 C-142.056 355.139 -141.292 353.23 -140.528 351.32 C-138.564 346.41 -136.6 341.5 -134.635 336.59 C-131.347 328.37 -128.058 320.149 -124.777 311.926 C-118.695 296.687 -112.555 281.472 -106.392 266.266 C-101.283 253.66 -96.207 241.042 -91.167 228.408 C-88.062 220.633 -84.918 212.874 -81.75 205.125 C-69.755 175.743 -58.112 146.23 -46.664 116.63 C-36.817 91.167 -26.747 65.796 -16.586 40.457 C-14.557 35.396 -12.537 30.331 -10.52 25.266 C-9.693 23.193 -8.867 21.12 -8.041 19.047 C-7.519 17.738 -6.998 16.428 -6.478 15.119 C-5.763 13.319 -5.046 11.521 -4.328 9.723 C-3.925 8.71 -3.522 7.696 -3.106 6.653 C-2.164 4.394 -1.095 2.189 0 0 Z " fill="white" transform="translate(1889,2094)"/>
<path d="M0 0 C0.33 92.73 0.66 185.46 1 281 C4.96 276.71 8.92 272.42 13 268 C44.596 234.668 88.899 213.117 135.136 211.778 C139.111 211.688 143.086 211.646 147.062 211.625 C147.9 211.62 148.737 211.615 149.6 211.61 C163.391 211.577 176.147 212.897 189.547 216.375 C191.966 216.991 194.392 217.515 196.836 218.023 C200.203 218.764 203.19 219.756 206.312 221.25 C207.699 221.911 207.699 221.911 209.113 222.586 C210.066 223.053 211.019 223.519 212 224 C212.984 224.467 213.967 224.933 214.98 225.414 C241.561 238.275 261.175 259.488 271.949 286.961 C281.135 313.528 282.306 341.413 282.255 369.26 C282.258 371.827 282.262 374.393 282.266 376.96 C282.275 382.442 282.277 387.924 282.274 393.405 C282.271 401.343 282.283 409.28 282.299 417.218 C282.325 430.118 282.345 443.018 282.358 455.918 C282.359 456.687 282.36 457.456 282.361 458.248 C282.372 469.181 282.377 480.114 282.38 491.046 C282.381 492.204 282.381 492.204 282.381 493.385 C282.381 494.156 282.381 494.927 282.381 495.721 C282.385 508.592 282.404 521.462 282.436 534.332 C282.455 542.248 282.461 550.164 282.45 558.08 C282.443 564.141 282.457 570.202 282.478 576.263 C282.483 578.742 282.482 581.22 282.473 583.699 C282.462 587.09 282.475 590.481 282.494 593.872 C282.481 595.332 282.481 595.332 282.467 596.821 C282.555 604.805 284.351 612.838 289.188 619.375 C300.361 629.804 315.56 630.865 330 633 C330 639.6 330 646.2 330 653 C262.02 653 194.04 653 124 653 C124 646.07 124 639.14 124 632 C125.631 631.781 127.261 631.562 128.941 631.336 C152.005 628.731 152.005 628.731 170.512 616.035 C175.794 607.173 177.152 599.747 177.134 589.507 C177.136 588.558 177.138 587.609 177.141 586.631 C177.147 583.454 177.146 580.277 177.145 577.099 C177.148 574.819 177.152 572.538 177.155 570.257 C177.164 564.058 177.167 557.858 177.167 551.658 C177.168 547.774 177.17 543.89 177.173 540.006 C177.182 527.124 177.186 514.241 177.185 501.359 C177.185 500.665 177.185 499.971 177.185 499.255 C177.185 498.56 177.185 497.865 177.185 497.149 C177.185 485.943 177.194 474.736 177.208 463.529 C177.223 451.98 177.23 440.431 177.229 428.882 C177.229 422.416 177.231 415.95 177.242 409.483 C179.263 345.502 179.263 345.502 157 287 C156.591 286.384 156.183 285.768 155.762 285.133 C150.489 278.039 141.255 272.087 133 269 C132.011 268.629 131.023 268.257 130.004 267.875 C106.528 260.597 80.696 263.602 59.062 274.75 C51.809 278.745 45.379 283.753 39 289 C38.325 289.522 37.649 290.044 36.953 290.582 C31.46 294.954 27.27 300.469 23 306 C22.379 306.794 21.757 307.588 21.117 308.406 C1.891 334.271 -0.499 368.543 -0.372 399.638 C-0.375 401.779 -0.378 403.921 -0.383 406.063 C-0.393 411.795 -0.383 417.528 -0.37 423.261 C-0.359 429.297 -0.363 435.333 -0.365 441.369 C-0.366 451.486 -0.355 461.602 -0.336 471.718 C-0.315 483.388 -0.312 495.058 -0.318 506.728 C-0.323 518.008 -0.318 529.288 -0.307 540.568 C-0.302 545.348 -0.301 550.127 -0.303 554.907 C-0.305 560.531 -0.297 566.156 -0.281 571.78 C-0.277 573.836 -0.276 575.891 -0.279 577.947 C-0.875 600.62 -0.875 600.62 9.785 619.812 C18.26 626.773 29.131 628.673 39.688 630.25 C41.33 630.509 41.33 630.509 43.006 630.773 C45.669 631.192 48.334 631.597 51 632 C51 638.93 51 645.86 51 653 C-17.64 653 -86.28 653 -157 653 C-157 646.07 -157 639.14 -157 632 C-155.418 631.769 -153.837 631.539 -152.207 631.301 C-132.309 628.519 -132.309 628.519 -115 619 C-114.34 619 -113.68 619 -113 619 C-112.582 618.157 -112.582 618.157 -112.156 617.297 C-111.381 615.757 -110.589 614.226 -109.781 612.703 C-109.358 611.894 -108.936 611.084 -108.5 610.25 C-108.077 609.451 -107.654 608.652 -107.219 607.828 C-104.422 601.339 -103.706 595.277 -103.748 588.308 C-103.745 587.465 -103.743 586.623 -103.74 585.755 C-103.732 582.937 -103.739 580.118 -103.746 577.3 C-103.744 575.257 -103.741 573.214 -103.737 571.17 C-103.728 565.559 -103.732 559.947 -103.739 554.336 C-103.743 548.281 -103.736 542.227 -103.731 536.173 C-103.722 524.995 -103.723 513.817 -103.728 502.639 C-103.733 492.302 -103.735 481.965 -103.732 471.628 C-103.732 470.942 -103.732 470.255 -103.732 469.548 C-103.731 466.762 -103.731 463.976 -103.73 461.191 C-103.724 435.048 -103.729 408.905 -103.74 382.762 C-103.75 359.58 -103.749 336.397 -103.739 313.215 C-103.729 287.145 -103.724 261.075 -103.73 235.005 C-103.731 232.219 -103.732 229.433 -103.732 226.647 C-103.733 225.961 -103.733 225.275 -103.733 224.568 C-103.735 214.254 -103.732 203.94 -103.727 193.626 C-103.722 181.874 -103.723 170.121 -103.734 158.369 C-103.739 152.381 -103.741 146.393 -103.735 140.405 C-103.57 112.234 -103.57 112.234 -104.766 84.098 C-104.827 83.174 -104.888 82.25 -104.95 81.297 C-105.618 73.903 -107.579 66.856 -112.438 61.125 C-113.706 60.073 -113.706 60.073 -115 59 C-115.743 58.319 -116.485 57.639 -117.25 56.938 C-120.93 54.345 -124.818 52.634 -129 51 C-129.849 50.655 -130.699 50.309 -131.574 49.953 C-136.459 48.594 -141.334 48.272 -146.375 47.875 C-149.881 47.586 -153.388 47.297 -157 47 C-157 39.74 -157 32.48 -157 25 C-154.27 24.685 -151.54 24.371 -148.727 24.047 C-123.07 21.096 -123.07 21.096 -97.522 17.345 C-92.157 16.466 -86.797 15.718 -81.398 15.07 C-73.389 14.101 -65.447 12.825 -57.499 11.45 C-55.238 11.06 -52.977 10.679 -50.715 10.299 C-43.25 9.026 -35.914 7.579 -28.583 5.658 C-24.994 4.743 -21.398 4.084 -17.75 3.438 C-12.037 2.408 -5.755 0 0 0 Z " fill="white" transform="translate(1743,1353)"/>
<path d="M0 0 C0.33 90.42 0.66 180.84 1 274 C5.495 268.882 5.495 268.882 9.934 263.715 C13.938 258.983 18.223 254.941 23 251 C23.5 250.577 23.999 250.155 24.514 249.719 C47.157 230.603 73.275 216.669 102 209.25 C102.758 209.051 103.516 208.852 104.297 208.647 C118.314 205.22 132.397 204.624 146.75 204.688 C147.582 204.689 148.414 204.69 149.272 204.692 C161.711 204.732 173.837 205.158 186 208 C187.221 208.278 188.441 208.557 189.699 208.844 C220.373 216.813 246.395 234.569 262.726 261.987 C270.288 275.24 275.243 288.992 278 304 C278.169 304.852 278.339 305.704 278.513 306.582 C280.663 319.086 280.269 331.674 280.24 344.32 C280.241 346.978 280.243 349.635 280.246 352.293 C280.251 357.993 280.249 363.694 280.244 369.395 C280.236 378.419 280.247 387.443 280.261 396.467 C280.266 399.563 280.27 402.659 280.274 405.756 C280.276 406.916 280.276 406.916 280.278 408.1 C280.29 416.881 280.298 425.662 280.303 434.443 C280.304 435.245 280.305 436.046 280.305 436.872 C280.314 449.865 280.31 462.859 280.304 475.852 C280.299 489.228 280.312 502.605 280.342 515.981 C280.359 524.212 280.361 532.443 280.342 540.674 C280.331 546.319 280.337 551.964 280.358 557.609 C280.369 560.858 280.37 564.106 280.354 567.354 C279.97 590.931 279.97 590.931 291 611 C302.305 619.126 317.567 620.507 331 622 C331 628.93 331 635.86 331 643 C261.7 643 192.4 643 121 643 C121 636.07 121 629.14 121 622 C123.282 621.745 123.282 621.745 125.609 621.484 C149.017 618.983 149.017 618.983 167.395 605.262 C174.236 595.624 175.312 583.272 175.254 571.79 C175.257 570.824 175.26 569.858 175.263 568.863 C175.271 565.66 175.265 562.456 175.259 559.253 C175.262 556.942 175.265 554.631 175.269 552.321 C175.279 546.064 175.275 539.807 175.269 533.55 C175.264 526.978 175.268 520.406 175.271 513.834 C175.276 502.08 175.269 490.327 175.259 478.574 C175.25 467.962 175.252 457.351 175.261 446.74 C175.272 434.377 175.276 422.015 175.27 409.652 C175.266 403.124 175.266 396.595 175.273 390.066 C175.278 383.915 175.274 377.763 175.263 371.611 C175.26 369.37 175.261 367.13 175.265 364.89 C175.321 333.869 174.944 297.269 152.375 273.289 C138.044 259.477 117.717 256.472 98.611 256.506 C88.24 256.748 78.83 258.809 69 262 C67.824 262.361 66.649 262.722 65.438 263.094 C40.585 271.622 24.946 289.727 13.516 312.629 C4.2 332.039 -0.163 353.923 -0.14 375.398 C-0.143 376.288 -0.146 377.179 -0.149 378.096 C-0.158 381.049 -0.16 384.003 -0.161 386.957 C-0.166 389.086 -0.171 391.216 -0.176 393.346 C-0.189 399.11 -0.196 404.875 -0.2 410.639 C-0.203 414.245 -0.207 417.851 -0.212 421.457 C-0.225 432.753 -0.235 444.049 -0.239 455.345 C-0.243 468.36 -0.261 481.375 -0.29 494.391 C-0.312 504.47 -0.322 514.549 -0.323 524.628 C-0.324 530.64 -0.33 536.652 -0.348 542.664 C-0.364 548.32 -0.366 553.975 -0.358 559.63 C-0.357 561.699 -0.361 563.768 -0.371 565.836 C-0.442 581.645 0.048 595.709 10.934 608.223 C22.694 619.767 38.458 620.368 54 622 C54 628.93 54 635.86 54 643 C-16.29 643 -86.58 643 -159 643 C-159 635.74 -159 628.48 -159 621 C-155.752 620.876 -155.752 620.876 -152.438 620.75 C-137.902 619.902 -122.589 615.989 -112.43 604.906 C-103.546 593.062 -104.71 577.838 -104.739 563.834 C-104.736 561.764 -104.732 559.695 -104.728 557.626 C-104.717 551.952 -104.72 546.278 -104.724 540.604 C-104.726 534.48 -104.717 528.356 -104.71 522.231 C-104.697 510.238 -104.695 498.244 -104.698 486.25 C-104.699 476.501 -104.698 466.751 -104.693 457.001 C-104.693 455.599 -104.692 454.197 -104.692 452.795 C-104.691 450.683 -104.69 448.57 -104.689 446.458 C-104.68 426.82 -104.676 407.183 -104.68 387.546 C-104.68 386.806 -104.681 386.066 -104.681 385.304 C-104.682 381.553 -104.682 377.803 -104.683 374.053 C-104.684 372.935 -104.684 372.935 -104.684 371.796 C-104.684 370.29 -104.685 368.783 -104.685 367.277 C-104.69 343.846 -104.682 320.415 -104.664 296.984 C-104.643 270.645 -104.632 244.305 -104.636 217.965 C-104.637 215.155 -104.637 212.345 -104.637 209.534 C-104.638 208.842 -104.638 208.15 -104.638 207.437 C-104.639 197.006 -104.632 186.574 -104.622 176.143 C-104.61 164.274 -104.608 152.405 -104.62 140.537 C-104.626 134.483 -104.627 128.43 -104.615 122.377 C-104.605 116.83 -104.608 111.283 -104.622 105.737 C-104.624 103.735 -104.622 101.734 -104.614 99.733 C-104.423 77.773 -104.423 77.773 -113 58 C-121.869 49.739 -134.053 47.461 -145.688 46.25 C-146.783 46.125 -147.878 46 -149.006 45.871 C-151.669 45.569 -154.334 45.283 -157 45 C-157 38.73 -157 32.46 -157 26 C-148.136 24.073 -139.297 22.56 -130.312 21.312 C-97.852 16.773 -65.437 12.002 -33.316 5.445 C-27.459 4.254 -21.599 3.275 -15.681 2.438 C-13.386 2.063 -11.277 1.567 -9.062 0.875 C-6 0 -6 0 0 0 Z " fill="white" transform="translate(2366,2078)"/>
<path d="M0 0 C0.718 0.123 1.436 0.246 2.175 0.372 C11.838 2.046 21.102 4.299 30.5 7.125 C32.582 7.692 34.665 8.255 36.75 8.812 C57.091 14.698 76.645 22.473 96.16 30.628 C96.975 30.968 97.791 31.308 98.631 31.658 C100.155 32.294 101.677 32.933 103.198 33.576 C113.246 37.775 123.083 41.687 133.938 37.938 C139.701 33.861 142.734 29.367 145.688 23.125 C146.03 22.426 146.372 21.728 146.725 21.008 C148.471 17.413 150.011 13.846 151.5 10.125 C158.43 10.125 165.36 10.125 172.5 10.125 C172.52 12.34 172.54 14.556 172.56 16.838 C172.657 27.476 172.764 38.113 172.875 48.75 C172.885 49.727 172.895 50.703 172.906 51.709 C173.258 85.291 173.883 118.86 174.771 152.432 C174.883 156.65 174.991 160.868 175.098 165.086 C175.128 166.289 175.128 166.289 175.159 167.516 C175.576 184.387 175.592 201.251 175.5 218.125 C167.25 218.125 159 218.125 150.5 218.125 C148.149 212.616 145.849 207.114 143.773 201.496 C130.723 166.199 113.752 130.188 89.5 101.125 C89.051 100.578 88.602 100.03 88.14 99.466 C68.614 75.686 45.985 56.346 17.585 44.03 C15.799 43.255 14.027 42.449 12.258 41.637 C-21.594 27.135 -63.698 27.865 -98.5 38.125 C-100.339 38.663 -100.339 38.663 -102.215 39.211 C-128.26 47.355 -151.873 62.267 -171.5 81.125 C-172.329 81.914 -173.158 82.703 -174.012 83.516 C-180.006 89.354 -185.373 95.518 -190.5 102.125 C-190.908 102.641 -191.316 103.156 -191.736 103.688 C-219.629 139.117 -235.823 182.502 -244.895 226.233 C-245.386 228.581 -245.899 230.92 -246.434 233.258 C-248.832 244.169 -249.949 255.269 -251.103 266.369 C-251.393 269.116 -251.703 271.857 -252.028 274.6 C-253.392 286.525 -253.782 298.3 -253.706 310.298 C-253.687 313.255 -253.685 316.211 -253.686 319.168 C-253.657 334.839 -253.352 350.438 -250.843 365.937 C-250.435 368.539 -250.063 371.146 -249.691 373.754 C-242.383 424.288 -228.078 474.073 -196.5 515.125 C-195.809 516.027 -195.118 516.93 -194.406 517.859 C-189.849 523.607 -184.929 529.006 -179.938 534.375 C-179.018 535.368 -179.018 535.368 -178.079 536.38 C-153.473 562.524 -118.569 583.131 -83.031 589.477 C-79.723 590.084 -76.508 590.856 -73.25 591.688 C-37.564 599.866 3.08 596.345 37.609 584.756 C39.338 584.179 41.075 583.627 42.812 583.078 C69.135 574.346 93.005 559.844 113.336 541.102 C115.202 539.397 117.1 537.778 119.062 536.188 C121.547 534.36 121.547 534.36 122.5 532.125 C123.16 532.125 123.82 532.125 124.5 532.125 C124.763 531.532 125.027 530.939 125.298 530.328 C126.55 528.033 127.822 526.656 129.727 524.883 C133.519 521.196 136.706 517.226 139.875 513 C140.437 512.256 141 511.511 141.579 510.745 C153.203 495.274 162.989 478.943 172.5 462.125 C177.956 464.186 182.757 467.08 187.75 470.062 C188.673 470.601 189.596 471.139 190.547 471.693 C191.862 472.477 191.862 472.477 193.203 473.277 C194.004 473.752 194.805 474.226 195.63 474.715 C197.5 476.125 197.5 476.125 198.5 479.125 C197.87 481.092 197.87 481.092 196.797 483.344 C196.399 484.184 196.002 485.024 195.593 485.889 C195.149 486.792 194.706 487.695 194.25 488.625 C193.567 490.031 193.567 490.031 192.87 491.466 C178.716 520.2 160.215 546.51 137.5 569.125 C136.444 570.202 135.39 571.28 134.336 572.359 C127.392 579.434 120.346 586.042 112.5 592.125 C111.542 592.9 110.584 593.674 109.598 594.473 C90.315 609.816 68.361 622.001 45.5 631.125 C44.151 631.692 42.802 632.26 41.453 632.828 C24.674 639.776 7.176 643.691 -10.562 647.375 C-11.719 647.621 -12.876 647.868 -14.067 648.121 C-31.742 651.66 -49.619 652.465 -67.604 652.386 C-70.5 652.375 -73.394 652.386 -76.289 652.398 C-127.153 652.436 -176.607 640.116 -221.5 616.125 C-222.143 615.787 -222.786 615.449 -223.449 615.1 C-234.43 609.295 -244.519 602.503 -254.5 595.125 C-255.084 594.696 -255.668 594.266 -256.269 593.824 C-273.859 580.821 -289.899 566.282 -303.5 549.125 C-304.215 548.277 -304.931 547.429 -305.668 546.555 C-338.807 507.257 -360.132 457.358 -369.5 407.125 C-369.679 406.178 -369.857 405.231 -370.042 404.256 C-372.006 393.729 -373.704 383.167 -375.188 372.562 C-375.367 371.298 -375.367 371.298 -375.549 370.008 C-377.606 354.7 -377.739 339.419 -377.75 324 C-377.751 322.89 -377.753 321.779 -377.754 320.635 C-377.75 304.551 -377.27 288.832 -374.91 272.9 C-374.518 270.244 -374.174 267.586 -373.844 264.922 C-371.254 244.919 -366.622 225.004 -359.5 206.125 C-359.144 205.178 -358.788 204.231 -358.422 203.255 C-346.191 171.031 -329.717 142.145 -308.795 114.823 C-307.721 113.415 -306.661 111.996 -305.605 110.574 C-292.797 93.527 -276.703 77.256 -259.656 64.5 C-256.702 62.277 -253.883 59.952 -251.062 57.562 C-236.115 45.285 -218.915 35.461 -201.524 27.104 C-199.536 26.143 -197.563 25.156 -195.59 24.164 C-177.484 15.195 -158.19 8.596 -138.5 4.125 C-137.621 3.919 -136.742 3.713 -135.836 3.501 C-91.073 -6.821 -45.187 -7.792 0 0 Z " fill="white" transform="translate(1367.5,1365.875)"/>
<path d="M0 0 C1.249 -0.009 1.249 -0.009 2.522 -0.017 C4.276 -0.027 6.03 -0.033 7.784 -0.037 C10.404 -0.047 13.023 -0.078 15.643 -0.109 C49.885 -0.323 82.617 10.522 107.566 34.453 C137.904 65.687 142.133 106.964 142.177 148.264 C142.184 150.798 142.191 153.332 142.198 155.866 C142.212 161.303 142.224 166.74 142.234 172.177 C142.248 180.05 142.269 187.924 142.292 195.797 C142.33 208.592 142.365 221.387 142.397 234.181 C142.399 234.945 142.401 235.71 142.402 236.497 C142.429 247.344 142.453 258.192 142.476 269.039 C142.477 269.803 142.479 270.568 142.481 271.355 C142.483 272.5 142.483 272.5 142.486 273.669 C142.512 286.42 142.547 299.172 142.587 311.923 C142.612 319.773 142.63 327.622 142.641 335.471 C142.649 341.49 142.667 347.508 142.69 353.526 C142.697 355.986 142.701 358.447 142.702 360.907 C142.703 364.277 142.716 367.646 142.732 371.015 C142.73 371.979 142.727 372.943 142.724 373.936 C142.798 383.843 143.609 393.678 149.004 402.203 C149.623 403.234 150.241 404.266 150.879 405.328 C157.362 412.651 169.75 415.052 179.004 416.203 C180.343 416.387 181.681 416.572 183.02 416.758 C186.678 417.265 190.339 417.732 194.004 418.203 C194.004 425.133 194.004 432.063 194.004 439.203 C124.704 439.203 55.404 439.203 -15.996 439.203 C-15.996 432.273 -15.996 425.343 -15.996 418.203 C-14.391 418.033 -12.786 417.863 -11.133 417.688 C-8.983 417.443 -6.833 417.199 -4.684 416.953 C-3.105 416.789 -3.105 416.789 -1.494 416.621 C9.928 415.286 20.582 412.33 28.5 403.543 C35.506 394.417 36.156 384.235 36.138 373.132 C36.14 372.133 36.142 371.134 36.144 370.105 C36.151 366.764 36.15 363.424 36.149 360.084 C36.152 357.685 36.156 355.286 36.159 352.887 C36.167 347.049 36.17 341.21 36.171 335.372 C36.171 330.617 36.173 325.862 36.177 321.107 C36.185 307.591 36.19 294.076 36.189 280.56 C36.189 279.832 36.189 279.104 36.189 278.354 C36.189 277.625 36.189 276.896 36.189 276.145 C36.189 264.368 36.198 252.592 36.212 240.816 C36.227 228.69 36.234 216.565 36.233 204.44 C36.232 197.646 36.235 190.852 36.246 184.059 C36.256 177.654 36.256 171.249 36.248 164.845 C36.247 162.511 36.25 160.177 36.256 157.843 C36.33 127.646 35.891 94.342 15.004 70.203 C-2.587 55.15 -24.706 52.052 -47.169 52.972 C-69.323 54.782 -92.009 65.318 -106.434 82.266 C-127.118 108.385 -136.151 142.351 -136.143 175.353 C-136.147 176.217 -136.151 177.08 -136.154 177.97 C-136.165 180.834 -136.169 183.698 -136.173 186.561 C-136.179 188.627 -136.186 190.693 -136.193 192.759 C-136.214 199.515 -136.224 206.271 -136.234 213.027 C-136.238 215.362 -136.243 217.696 -136.247 220.03 C-136.266 230.998 -136.28 241.966 -136.288 252.933 C-136.298 265.56 -136.324 278.186 -136.365 290.812 C-136.395 300.596 -136.41 310.38 -136.413 320.164 C-136.415 325.996 -136.424 331.829 -136.45 337.661 C-136.473 343.152 -136.477 348.642 -136.467 354.132 C-136.466 356.137 -136.473 358.142 -136.486 360.146 C-136.581 374.664 -136.324 391.757 -126.164 403.281 C-120.507 408.785 -114.412 411.683 -106.996 414.203 C-106.331 414.438 -105.666 414.672 -104.98 414.914 C-98.259 416.93 -90.945 416.831 -83.996 417.203 C-83.996 424.463 -83.996 431.723 -83.996 439.203 C-152.306 439.203 -220.616 439.203 -290.996 439.203 C-290.996 432.273 -290.996 425.343 -290.996 418.203 C-287.779 417.811 -284.561 417.419 -281.246 417.016 C-272.867 415.883 -265.519 414.223 -257.996 410.203 C-257.242 409.834 -256.488 409.466 -255.711 409.086 C-248.041 404.928 -244.401 398.339 -241.856 390.178 C-238.683 378.623 -239.436 366.45 -239.488 354.573 C-239.499 350.969 -239.487 347.366 -239.478 343.763 C-239.464 336.723 -239.472 329.684 -239.487 322.644 C-239.504 314.43 -239.5 306.216 -239.497 298.001 C-239.491 283.335 -239.505 268.669 -239.53 254.003 C-239.553 239.803 -239.561 225.603 -239.55 211.403 C-239.539 195.904 -239.537 180.406 -239.551 164.907 C-239.553 163.252 -239.554 161.596 -239.556 159.94 C-239.556 159.126 -239.557 158.311 -239.558 157.472 C-239.563 151.759 -239.561 146.047 -239.557 140.334 C-239.552 133.363 -239.558 126.392 -239.578 119.421 C-239.587 115.87 -239.593 112.32 -239.585 108.77 C-238.454 82.735 -238.454 82.735 -248.422 59.57 C-260.028 48.546 -275.922 48.108 -290.996 47.203 C-290.996 39.943 -290.996 32.683 -290.996 25.203 C-276.468 22.692 -261.953 20.447 -247.328 18.599 C-241.225 17.817 -235.216 16.91 -229.195 15.641 C-225.961 14.997 -222.71 14.63 -219.434 14.266 C-213.852 13.612 -208.335 12.781 -202.809 11.766 C-195.52 10.428 -188.211 9.348 -180.871 8.331 C-176.002 7.65 -171.15 6.919 -166.308 6.07 C-156.477 4.381 -146.993 3.314 -136.996 2.203 C-136.666 25.633 -136.336 49.063 -135.996 73.203 C-133.686 69.573 -131.376 65.943 -128.996 62.203 C-126.78 59.683 -124.656 57.377 -122.246 55.078 C-121.638 54.485 -121.029 53.893 -120.402 53.282 C-115.185 48.259 -109.751 43.601 -103.996 39.203 C-103.454 38.78 -102.913 38.356 -102.354 37.92 C-73.261 15.239 -37.203 0.205 0 0 Z " fill="white" transform="translate(3008.99609375,2281.796875)"/>
<path d="M0 0 C37.813 32.871 47.654 86.724 51.317 134.234 C52.125 146.306 52.075 158.407 52.054 170.5 C52.049 173.43 52.056 176.358 52.074 179.288 C52.353 224.401 47.458 269.711 28.738 311.285 C28.446 311.945 28.154 312.605 27.853 313.286 C23.87 322.166 18.908 329.777 12.738 337.285 C12.04 338.149 11.341 339.013 10.621 339.902 C0.642 351.636 -11.323 359.123 -25.262 365.285 C-26.241 365.718 -27.221 366.151 -28.23 366.598 C-49.564 375.131 -76.173 373.246 -97.102 364.727 C-125.196 351.912 -142.702 327.934 -153.887 299.973 C-159.138 285.65 -163.252 271.233 -166.262 256.285 C-166.434 255.458 -166.607 254.63 -166.785 253.777 C-169.447 241.006 -171.352 228.303 -172.262 215.285 C-172.391 213.439 -172.391 213.439 -172.523 211.555 C-174.779 176.82 -174.461 141.73 -169.262 107.285 C-169.069 105.989 -168.877 104.692 -168.678 103.356 C-166.327 88.002 -163.101 73.051 -158.262 58.285 C-158.034 57.58 -157.806 56.876 -157.572 56.149 C-152.414 40.491 -144.789 25.022 -134.262 12.285 C-133.504 11.365 -132.746 10.444 -131.965 9.496 C-116.331 -8.577 -95.092 -19.501 -71.307 -21.57 C-45.145 -23.425 -20.356 -17.135 0 0 Z " fill="black" transform="translate(2379.26171875,1616.71484375)"/>
<path d="M0 0 C4.33 3.943 7.12 8.151 10.062 13.188 C15.736 22.674 21.79 31.858 28 41 C28.777 42.146 28.777 42.146 29.57 43.316 C52.511 77.112 76.403 110.28 101.383 142.602 C103.286 145.066 105.173 147.542 107.055 150.023 C114.51 159.847 122.173 169.471 130 179 C131.584 180.937 133.167 182.875 134.75 184.812 C135.813 186.11 135.813 186.11 136.898 187.434 C138.323 189.173 139.745 190.916 141.164 192.66 C146.564 199.29 152.061 205.831 157.597 212.347 C158.975 213.97 160.349 215.596 161.723 217.223 C166.508 222.891 171.307 228.547 176.125 234.188 C176.871 235.064 176.871 235.064 177.631 235.958 C179.963 238.685 182.318 241.367 184.793 243.965 C185.624 244.843 186.456 245.721 187.312 246.625 C188.42 247.758 188.42 247.758 189.551 248.914 C191 251 191 251 190.782 252.985 C189.42 256.495 185.982 257.957 182.875 259.812 C182.156 260.25 181.437 260.687 180.696 261.137 C143.519 283.324 96.556 288.915 54.648 278.746 C30.803 272.55 7.206 261.902 -11 245 C-11.5 244.546 -12 244.092 -12.516 243.625 C-41.54 217.074 -56.787 177.76 -59.126 138.911 C-59.323 134.045 -59.34 129.182 -59.312 124.312 C-59.31 123.573 -59.307 122.833 -59.304 122.071 C-59.106 87.376 -50.215 51.805 -27 25 C-26.574 24.505 -26.147 24.01 -25.708 23.5 C-18.104 14.741 -9.987 6.045 0 0 Z " fill="black" transform="translate(1104,2387)"/>
<path d="M0 0 C2.568 2.568 3.227 4.922 4.477 8.34 C4.718 8.996 4.96 9.652 5.209 10.328 C6.02 12.529 6.822 14.733 7.625 16.938 C8.202 18.509 8.78 20.08 9.358 21.65 C10.597 25.016 11.834 28.383 13.069 31.75 C15.958 39.615 18.886 47.465 21.812 55.316 C23.505 59.859 25.196 64.402 26.887 68.945 C27.226 69.856 27.565 70.767 27.914 71.706 C30.306 78.133 32.695 84.563 35.082 90.992 C41.442 108.118 47.83 125.232 54.312 142.312 C62.441 163.741 70.422 185.211 77.849 206.895 C80.437 214.44 83.142 221.935 85.97 229.393 C88 234.794 88 234.794 88 237 C27.61 237 -32.78 237 -95 237 C-91.627 224.634 -91.627 224.634 -89.969 220.672 C-89.58 219.732 -89.192 218.792 -88.791 217.823 C-88.365 216.809 -87.939 215.795 -87.5 214.75 C-86.781 213.012 -86.063 211.274 -85.345 209.536 C-84.811 208.24 -84.276 206.945 -83.74 205.65 C-79.621 195.687 -75.6 185.684 -71.562 175.688 C-70.726 173.617 -69.889 171.547 -69.052 169.476 C-64.126 157.286 -59.226 145.086 -54.354 132.875 C-48.267 117.637 -42.084 102.438 -35.908 87.236 C-35.031 85.075 -34.153 82.915 -33.276 80.754 C-28.668 69.407 -24.059 58.06 -19.443 46.715 C-18.304 43.914 -17.165 41.112 -16.026 38.311 C-15.471 36.948 -14.917 35.584 -14.362 34.221 C-10.62 25.022 -6.903 15.813 -3.27 6.569 C-1.108 1.108 -1.108 1.108 0 0 Z " fill="black" transform="translate(1876,2242)"/>
<path d="M0 0 C1.372 -0.008 1.372 -0.008 2.771 -0.017 C23.398 0.202 40.583 8.79 54.812 23.312 C63.962 33.055 69.798 47.495 72.812 60.312 C73.077 61.439 73.077 61.439 73.348 62.588 C74.923 70.08 75.12 77.472 75.073 85.1 C75.063 87.178 75.073 89.254 75.086 91.332 C75.099 102.892 73.78 114.001 70.562 125.125 C70.346 125.882 70.129 126.639 69.905 127.419 C59.363 163.387 38.613 187.163 5.812 205.312 C4.727 205.917 4.727 205.917 3.619 206.533 C2.56 207.097 2.56 207.097 1.48 207.672 C0.531 208.182 0.531 208.182 -0.437 208.702 C-2.188 209.312 -2.188 209.312 -5.188 208.312 C-6.581 206.315 -7.798 204.36 -9 202.25 C-9.383 201.594 -9.765 200.937 -10.159 200.261 C-11.025 198.775 -11.887 197.286 -12.747 195.795 C-14.289 193.137 -15.859 190.496 -17.434 187.855 C-29.879 166.902 -41.265 145.678 -50.153 122.956 C-50.796 121.312 -51.448 119.672 -52.112 118.036 C-62.757 91.811 -67.245 60.841 -56.867 33.883 C-49.885 18.888 -39.28 9.621 -24.188 3.312 C-16.234 0.439 -8.372 0.049 0 0 Z " fill="black" transform="translate(1189.1875,2108.6875)"/>
<path d="M0 0 C0.703 -0.012 1.405 -0.024 2.129 -0.037 C5.982 -0.048 8.531 0.325 11.875 2.188 C2.612 3.156 -6.568 3.309 -15.875 3.25 C-17.266 3.245 -18.656 3.24 -20.047 3.236 C-23.406 3.225 -26.766 3.208 -30.125 3.188 C-30.125 2.858 -30.125 2.528 -30.125 2.188 C-29.04 2.127 -27.954 2.066 -26.836 2.004 C-25.391 1.919 -23.945 1.835 -22.5 1.75 C-21.787 1.711 -21.074 1.671 -20.34 1.631 C-17.212 1.444 -14.2 1.201 -11.109 0.664 C-7.4 0.072 -3.746 0.003 0 0 Z " fill="white" transform="translate(1454.125,2723.8125)"/>
<path d="M0 0 C3.014 5.248 2.796 10.875 1.324 16.652 C0.609 18.798 -0.15 20.905 -1 23 C-1.33 23 -1.66 23 -2 23 C-2.058 19.917 -2.094 16.834 -2.125 13.75 C-2.142 12.877 -2.159 12.005 -2.176 11.105 C-2.182 10.261 -2.189 9.417 -2.195 8.547 C-2.206 7.772 -2.216 6.997 -2.227 6.198 C-1.973 3.741 -1.224 2.127 0 0 Z " fill="black" transform="translate(2031,2656)"/>
<path d="M0 0 C15.84 0 31.68 0 48 0 C48 0.66 48 1.32 48 2 C47.433 1.991 46.865 1.982 46.281 1.973 C40.376 1.885 34.472 1.824 28.566 1.78 C26.363 1.76 24.159 1.733 21.955 1.698 C18.788 1.65 15.621 1.627 12.453 1.609 C11.468 1.589 10.482 1.568 9.467 1.547 C4.004 1.454 4.004 1.454 -0.653 4.024 C-1.098 4.676 -1.542 5.328 -2 6 C-1.34 4.02 -0.68 2.04 0 0 Z " fill="white" transform="translate(1889,2094)"/>
<path d="M0 0 C0.33 0 0.66 0 1 0 C1 10.89 1 21.78 1 33 C0.01 32.67 -0.98 32.34 -2 32 C-1.842 31.139 -1.683 30.279 -1.52 29.392 C-1.021 26.139 -0.798 23.014 -0.684 19.727 C-0.642 18.573 -0.6 17.419 -0.557 16.23 C-0.517 15.041 -0.478 13.851 -0.438 12.625 C-0.394 11.412 -0.351 10.199 -0.307 8.949 C-0.201 5.966 -0.099 2.983 0 0 Z " fill="white" transform="translate(1542,1550)"/>
<path d="M0 0 C0.99 0.33 1.98 0.66 3 1 C2 4 2 4 -0.438 6.375 C-2.926 8.924 -3.948 10.652 -5 14 C-5.66 13.67 -6.32 13.34 -7 13 C-5.358 8.224 -2.735 4.206 0 0 Z " fill="black" transform="translate(1764,1660)"/>
<path d="M0 0 C0.985 0.018 1.97 0.036 2.984 0.055 C4.106 0.089 4.106 0.089 5.25 0.125 C2.635 1.868 1.245 2.541 -1.688 3.25 C-2.357 3.418 -3.026 3.585 -3.715 3.758 C-5.75 4.125 -5.75 4.125 -9.75 4.125 C-9.75 3.465 -9.75 2.805 -9.75 2.125 C-6.401 0.099 -3.88 -0.092 0 0 Z " fill="white" transform="translate(1194.75,2723.875)"/>
<path d="M0 0 C0.66 0.66 1.32 1.32 2 2 C-0.338 7.662 -0.338 7.662 -3.688 9.375 C-4.451 9.581 -5.214 9.787 -6 10 C-5.19 8.52 -4.377 7.041 -3.562 5.562 C-2.884 4.327 -2.884 4.327 -2.191 3.066 C-1 1 -1 1 0 0 Z " fill="black" transform="translate(2514,1911)"/>
<path d="M0 0 C0.66 0.33 1.32 0.66 2 1 C1.06 1.922 1.06 1.922 0.102 2.863 C-0.716 3.672 -1.533 4.48 -2.375 5.312 C-3.187 6.113 -3.999 6.914 -4.836 7.738 C-7.126 10 -7.126 10 -9 13 C-9.66 13 -10.32 13 -11 13 C-9.464 9.319 -7.218 7.012 -4.375 4.25 C-3.558 3.451 -2.74 2.652 -1.898 1.828 C-0.959 0.923 -0.959 0.923 0 0 Z " fill="white" transform="translate(1091,2118)"/>
<path d="M0 0 C0.66 0 1.32 0 2 0 C2.697 1.788 3.382 3.581 4.062 5.375 C4.637 6.872 4.637 6.872 5.223 8.398 C6 11 6 11 5 13 C3 12 3 12 2 9.25 C1.67 8.177 1.34 7.105 1 6 C0.346 4.328 -0.317 2.66 -1 1 C-0.67 0.67 -0.34 0.34 0 0 Z " fill="black" transform="translate(1893,2289)"/>
<path d="M0 0 C0.66 1.32 1.32 2.64 2 4 C1.34 4 0.68 4 0 4 C-0.103 5.114 -0.206 6.227 -0.312 7.375 C-0.653 9.169 -0.653 9.169 -1 11 C-1.99 11.66 -2.98 12.32 -4 13 C-3.409 8.153 -2.021 4.393 0 0 Z " fill="black" transform="translate(1876,2242)"/>
<path d="M0 0 C0.66 0.33 1.32 0.66 2 1 C-1.072 4.395 -4.14 6.876 -8.812 7.188 C-9.534 7.126 -10.256 7.064 -11 7 C-7.533 4.226 -3.936 2.041 0 0 Z " fill="white" transform="translate(1283,2648)"/>
<path d="M0 0 C1 3 1 3 -0.188 6.562 C-1.945 9.895 -2.509 10.917 -6 12 C-4.434 7.692 -2.317 3.938 0 0 Z " fill="black" transform="translate(1070,2421)"/>
<path d="M0 0 C2.458 3.687 3.012 6.697 4 11 C3.34 11 2.68 11 2 11 C2 10.34 2 9.68 2 9 C1.34 9 0.68 9 0 9 C0 7.35 0 5.7 0 4 C-0.66 4 -1.32 4 -2 4 C-2 3.34 -2 2.68 -2 2 C-1.34 2 -0.68 2 0 2 C0 1.34 0 0.68 0 0 Z " fill="black" transform="translate(2414,1671)"/>
<path d="M0 0 C0 3 0 3 -2 6 C-2.33 6.99 -2.66 7.98 -3 9 C-4.65 8.67 -6.3 8.34 -8 8 C-5.333 5.333 -2.667 2.667 0 0 Z " fill="white" transform="translate(2026,2683)"/>
<path d="M0 0 C-2.008 2.008 -3.369 2.994 -6 4 C-8.25 3.625 -8.25 3.625 -10 3 C-10 2.34 -10 1.68 -10 1 C-6.62 -0.04 -3.522 -0.08 0 0 Z " fill="black" transform="translate(2368,2012)"/>
<path d="M0 0 C-3.421 2.281 -4.682 2.219 -8.688 2.125 C-10.178 2.098 -10.178 2.098 -11.699 2.07 C-12.458 2.047 -13.218 2.024 -14 2 C-9.357 -1.095 -5.351 -1.416 0 0 Z " fill="black" transform="translate(1377,2010)"/>
<path d="M0 0 C3.96 0.33 7.92 0.66 12 1 C12 1.66 12 2.32 12 3 C7.452 3.178 4.121 2.998 0 1 C0 0.67 0 0.34 0 0 Z " fill="black" transform="translate(2302,1596)"/>
<path d="M0 0 C0.66 0.33 1.32 0.66 2 1 C2 1.99 2 2.98 2 4 C1.196 4.268 0.391 4.536 -0.438 4.812 C-1.283 5.204 -2.129 5.596 -3 6 C-3.33 6.99 -3.66 7.98 -4 9 C-4.33 8.34 -4.66 7.68 -5 7 C-3.35 4.69 -1.7 2.38 0 0 Z " fill="white" transform="translate(1054,1487)"/>
<path d="M0 0 C2 1 2 1 2 1 Z M-1 1 C-0.34 1.66 0.32 2.32 1 3 C-1.812 5.062 -1.812 5.062 -5 7 C-5.99 6.67 -6.98 6.34 -8 6 C-5.69 4.35 -3.38 2.7 -1 1 Z " fill="black" transform="translate(1319,2664)"/>
<path d="M0 0 C0.99 0 1.98 0 3 0 C3.66 2.31 4.32 4.62 5 7 C4.01 7 3.02 7 2 7 C2 5.68 2 4.36 2 3 C1.34 3 0.68 3 0 3 C0 2.01 0 1.02 0 0 Z " fill="black" transform="translate(2254,2141)"/>
<path d="M0 0 C5.75 0.75 5.75 0.75 8 3 C7.67 3.99 7.34 4.98 7 6 C5.831 5.192 4.664 4.378 3.5 3.562 C2.85 3.11 2.201 2.658 1.531 2.191 C1.026 1.798 0.521 1.405 0 1 C0 0.67 0 0.34 0 0 Z " fill="black" transform="translate(1289,2105)"/>
<path d="M0 0 C0.66 0.33 1.32 0.66 2 1 C0.667 3.667 -0.667 6.333 -2 9 C-2.66 9 -3.32 9 -4 9 C-2.941 5.597 -1.991 2.986 0 0 Z " fill="black" transform="translate(1462,2444)"/>
<path d="M0 0 C0.33 0 0.66 0 1 0 C1.25 3.312 1.25 3.312 1 7 C-0.32 7.99 -1.64 8.98 -3 10 C-2.01 6.7 -1.02 3.4 0 0 Z " fill="white" transform="translate(1802,2312)"/>
<path d="M0 0 C2.375 0.25 2.375 0.25 5 1 C6.312 3.062 6.312 3.062 7 5 C6.01 5 5.02 5 4 5 C1.812 2.5 1.812 2.5 0 0 Z " fill="black" transform="translate(2602,2309)"/>
<path d="M0 0 C-1 1.562 -1 1.562 -3 3 C-5.766 2.967 -8.26 2.494 -11 2 C-11 1.67 -11 1.34 -11 1 C-7.266 0.121 -3.832 -0.089 0 0 Z " fill="white" transform="translate(2484,2285)"/>
<path d="M0 0 C0.66 0.33 1.32 0.66 2 1 C2 4 2 4 0.5 5.688 C0.005 6.121 -0.49 6.554 -1 7 C-1.99 6.67 -2.98 6.34 -4 6 C-2.68 4.02 -1.36 2.04 0 0 Z " fill="white" transform="translate(1240,2276)"/>
<path d="M0 0 C0.99 1.32 1.98 2.64 3 4 C1.68 4.33 0.36 4.66 -1 5 C-1 6.32 -1 7.64 -1 9 C-1.66 9 -2.32 9 -3 9 C-2.01 6.03 -1.02 3.06 0 0 Z " fill="white" transform="translate(1689,2594)"/>
<path d="M0 0 C1.619 2.572 2.044 3.677 1.625 6.75 C1.419 7.492 1.213 8.235 1 9 C-0.735 6.397 -1.611 5.013 -2 2 C-1.34 1.34 -0.68 0.68 0 0 Z " fill="white" transform="translate(1946,2421)"/>
<path d="M0 0 C1 3 1 3 0.312 5.125 C-1 7 -1 7 -3.125 7.75 C-4.053 7.874 -4.053 7.874 -5 8 C-1.125 1.125 -1.125 1.125 0 0 Z " fill="black" transform="translate(1076,2413)"/>
<path d="M0 0 C0.33 0 0.66 0 1 0 C1.25 2.312 1.25 2.312 1 5 C-1 6.812 -1 6.812 -3 8 C-3.66 7.67 -4.32 7.34 -5 7 C-4.192 5.831 -3.378 4.664 -2.562 3.5 C-2.11 2.85 -1.658 2.201 -1.191 1.531 C-0.798 1.026 -0.405 0.521 0 0 Z " fill="black" transform="translate(2390,2371)"/>
<path d="M0 0 C0.66 0.66 1.32 1.32 2 2 C0.02 4.97 0.02 4.97 -2 8 C-2.66 7.34 -3.32 6.68 -4 6 C-4 4 -4 4 -2 1.875 C-1.34 1.256 -0.68 0.637 0 0 Z " fill="white" transform="translate(1320,2258)"/>
<path d="M0 0 C-0.66 1.32 -1.32 2.64 -2 4 C-3.65 4 -5.3 4 -7 4 C-7 3.34 -7 2.68 -7 2 C-2.25 0 -2.25 0 0 0 Z " fill="black" transform="translate(1429,1990)"/>
<path d="M0 0 C0.66 0 1.32 0 2 0 C1.508 5.538 1.508 5.538 -1.062 7.875 C-2.022 8.432 -2.022 8.432 -3 9 C-2.01 6.03 -1.02 3.06 0 0 Z " fill="black" transform="translate(1142,1526)"/>
<path d="M0 0 C-1.812 1.562 -1.812 1.562 -4 3 C-4.99 2.67 -5.98 2.34 -7 2 C-7 1.34 -7 0.68 -7 0 C-3.867 -1.044 -3.01 -0.934 0 0 Z " fill="black" transform="translate(1529,2716)"/>
<path d="M0 0 C5.571 5.143 5.571 5.143 6 9 C3.352 6.422 1.056 4.084 -1 1 C-0.67 0.67 -0.34 0.34 0 0 Z " fill="white" transform="translate(1285,2625)"/>
<path d="M0 0 C0.33 0.99 0.66 1.98 1 3 C0.01 4.485 0.01 4.485 -1 6 C-1.99 6 -2.98 6 -4 6 C-4 4.68 -4 3.36 -4 2 C-2.68 1.34 -1.36 0.68 0 0 Z " fill="black" transform="translate(1551,2386)"/>
<path d="M0 0 C0.33 0.66 0.66 1.32 1 2 C0.066 4.031 -0.932 6.035 -2 8 C-2.99 6.68 -3.98 5.36 -5 4 C-3.35 2.68 -1.7 1.36 0 0 Z " fill="black" transform="translate(1289,2296)"/>
<path d="M0 0 C3.3 0.33 6.6 0.66 10 1 C10 1.33 10 1.66 10 2 C6.7 2.33 3.4 2.66 0 3 C0 2.01 0 1.02 0 0 Z " fill="black" transform="translate(2236,2097)"/>
<path d="M0 0 C1.32 0.33 2.64 0.66 4 1 C3.67 2.65 3.34 4.3 3 6 C2.01 5.34 1.02 4.68 0 4 C0 2.68 0 1.36 0 0 Z " fill="black" transform="translate(2248,1952)"/>
<path d="M0 0 C0.66 0.66 1.32 1.32 2 2 C0.02 3.98 -1.96 5.96 -4 8 C-4.66 7.67 -5.32 7.34 -6 7 C-4.02 4.69 -2.04 2.38 0 0 Z " fill="black" transform="translate(2496,1938)"/>
<path d="M0 0 C0.66 0.33 1.32 0.66 2 1 C1.01 3.31 0.02 5.62 -1 8 C-1.99 8 -2.98 8 -4 8 C-2.68 5.36 -1.36 2.72 0 0 Z " fill="black" transform="translate(2519,1900)"/>
<path d="M0 0 C1.32 0.33 2.64 0.66 4 1 C3.67 3.64 3.34 6.28 3 9 C1.352 6.033 0.557 3.344 0 0 Z " fill="black" transform="translate(2527,1700)"/>
</mask></defs><rect width="4096" height="4096" fill="#020202" mask="url(#m)"/>
</svg>
